# xmcd CD database file
#
# Track frame offsets:
#	150
#	14360
#	29042
#	45007
#	64385
#	85027
#	102430
#	119753
#	135326
#	150829
#	166528
#	184094
#	197869
#	213963
#	231613
#	246015
#	259345
#	276813
#	296787
#	313279
#	327929
#
# Disc length: 4521 seconds
#
# Revision: 0
# Processed by: cddbd v1.5.2PL0 Copyright (c) Steve Scherf et al.
# Submitted via: CDex 1.51
#
DISCID=3111a715
DTITLE=Mevericks - EFK09
DYEAR=2011
DGENRE=Country
TTITLE0=As long as you belong to me (Holly Dunn) - Flobie Slide 106 - WCS
TTITLE1=Rockin' Pneumonia "truncated" (Ronnie McDowell) - Flobie Slide 113 - Smooth
TTITLE2=Love is strange (Dolly Parton and K) - Flobie Slide 122 - Smooth
TTITLE3=Loving you (The Mavericks) - Quarter to Six 105 - Smooth
TTITLE4=I wanna thank everyone (Buddy Jewell) - Quarter to Six 110 - Smooth
TTITLE5=Little drops of my heart (Keith Gattis) - Quarter to Six 120 - WCS
TTITLE6=Ropin' Pen (Trent Willmon) - Rockin' 103 - Cha cha
TTITLE7=Guardian Angel (Jason McCoy) - Rockin' 108 - Cha cha
TTITLE8=Some Beach (Blake Shelton) - Rockin' 116 - Cha cha
TTITLE9=She is not the cheatin' kind (Brooks and Dunn) - Liquid Gold 112 - Smooth
TTITLE10=Carolina Blue (Bucky Covington) - Liquid Gold 114 - Smooth
TTITLE11=Heartbreak School (James Bonamy) - Liquid Gold 122 - WCS
TTITLE12=The First Time (David Waddell) - Midnight Waltz 97 - Waltz
TTITLE13=Mexican Wind (Jann Browne) - Midnight Waltz 100 - Waltz
TTITLE14=Husbands and Wives (Brooks and Dunn) - Midnight Waltz 106 - Waltz
TTITLE15=By George (Marty Stuart) - Bring Me Down 132 - ECS
TTITLE16=Evangeline (Chad Brock) - Bring Me Down 134 - ECS
TTITLE17=All you ever do is bring me down (The Mavericks) - Bring Me Down 145 - ECS
TTITLE18=Oklahoma Borderline (Vince Gill) - Lightnin' Polka 110 - Polka
TTITLE19=Roly Poly (Asleep At The Wee) - Lightnin' Polka 114 - Polka
TTITLE20=If it ain't one thing (Lane Turner) - Lightnin' Polka 120 - Polka
EXTD=YEAR: 2011
EXTT0=
EXTT1=
EXTT2=
EXTT3=
EXTT4=
EXTT5=
EXTT6=
EXTT7=
EXTT8=
EXTT9=
EXTT10=
EXTT11=
EXTT12=
EXTT13=
EXTT14=
EXTT15=
EXTT16=
EXTT17=
EXTT18=
EXTT19=
EXTT20=
PLAYORDER=
